<svg width="107" height="29" viewBox="0 0 107 29" fill="none" xmlns="http://www.w3.org/2000/svg">
<path d="M12.24 1.80064H17.4L29.72 28.36H22.68L20.24 22.733H9.24L6.88 28.36H0L12.24 1.80064ZM14.64 9.52836L11.2 17.7813H18.12L14.64 9.52836Z" fill="white"/>
<path d="M31.8884 0H37.8884V28.36H31.8884V0Z" fill="white"/>
<path d="M42.2791 10.1286H48.2791V28.36H42.2791V10.1286ZM41.7991 4.38905C41.7991 3.48873 42.1324 2.72596 42.7991 2.10074C43.4924 1.45051 44.3191 1.1254 45.2791 1.1254C46.2391 1.1254 47.0524 1.45051 47.7191 2.10074C48.4124 2.72596 48.7591 3.48873 48.7591 4.38905C48.7591 5.28937 48.4124 6.06464 47.7191 6.71487C47.0524 7.34009 46.2391 7.6527 45.2791 7.6527C44.3191 7.6527 43.4924 7.34009 42.7991 6.71487C42.1324 6.06464 41.7991 5.28937 41.7991 4.38905Z" fill="white"/>
<path d="M50.5497 10.1286H57.0297L61.9497 22.5079H62.0297L66.5897 10.1286H72.6297L64.9497 28.36H58.5897L50.5497 10.1286Z" fill="white"/>
<path d="M74.8962 10.1286H80.8962V28.36H74.8962V10.1286ZM74.4163 4.38905C74.4163 3.48873 74.7496 2.72596 75.4163 2.10074C76.1096 1.45051 76.9362 1.1254 77.8962 1.1254C78.8562 1.1254 79.6696 1.45051 80.3363 2.10074C81.0296 2.72596 81.3763 3.48873 81.3763 4.38905C81.3763 5.28937 81.0296 6.06464 80.3363 6.71487C79.6696 7.34009 78.8562 7.6527 77.8962 7.6527C76.9362 7.6527 76.1096 7.34009 75.4163 6.71487C74.7496 6.06464 74.4163 5.28937 74.4163 4.38905Z" fill="white"/>
<path d="M84.4869 19.2443C84.4869 17.7938 84.7669 16.4808 85.3269 15.3054C85.8869 14.13 86.6469 13.1296 87.6069 12.3043C88.5935 11.454 89.7402 10.8038 91.0469 10.3537C92.3802 9.9035 93.7935 9.67841 95.2869 9.67841C96.7802 9.67841 98.1802 9.9035 99.4869 10.3537C100.82 10.8038 101.967 11.454 102.927 12.3043C103.914 13.1296 104.687 14.13 105.247 15.3054C105.807 16.4808 106.087 17.7938 106.087 19.2443C106.087 20.6948 105.807 22.0078 105.247 23.1832C104.687 24.3586 103.914 25.3715 102.927 26.2218C101.967 27.047 100.82 27.6848 99.4869 28.1349C98.1802 28.5851 96.7802 28.8102 95.2869 28.8102C93.7935 28.8102 92.3802 28.5851 91.0469 28.1349C89.7402 27.6848 88.5935 27.047 87.6069 26.2218C86.6469 25.3715 85.8869 24.3586 85.3269 23.1832C84.7669 22.0078 84.4869 20.6948 84.4869 19.2443ZM90.4869 19.2443C90.4869 20.6198 90.9002 21.7327 91.7269 22.583C92.5802 23.4333 93.7669 23.8584 95.2869 23.8584C96.8069 23.8584 97.9802 23.4333 98.8069 22.583C99.6602 21.7327 100.087 20.6198 100.087 19.2443C100.087 17.8688 99.6602 16.7559 98.8069 15.9056C97.9802 15.0553 96.8069 14.6302 95.2869 14.6302C93.7669 14.6302 92.5802 15.0553 91.7269 15.9056C90.9002 16.7559 90.4869 17.8688 90.4869 19.2443Z" fill="white"/>
</svg>
